<?xml version="1.0" encoding="utf-8"?>
<!-- Generator: Adobe Illustrator 21.0.1, SVG Export Plug-In . SVG Version: 6.00 Build 0)  -->
<svg version="1.1" id="Layer_1" xmlns="http://www.w3.org/2000/svg" xmlns:xlink="http://www.w3.org/1999/xlink" x="0px" y="0px"
	 viewBox="0 0 2200 760" style="enable-background:new 0 0 2200 760;" xml:space="preserve">
<style type="text/css">
	.st0{fill:none;stroke:#C7EADA;stroke-width:2;stroke-linecap:round;stroke-linejoin:round;}
	.st1{fill:none;stroke:#C7EADA;stroke-width:2.05;stroke-linejoin:round;}
	.st2{fill:none;stroke:#C7EADA;stroke-width:2.05;stroke-linecap:round;stroke-linejoin:round;}
</style>
<title>bkg-giveback</title>
<g id="aa9788f0-5740-457b-a4c4-0c06f1c442c2">
	<ellipse class="st0" cx="352" cy="4" rx="40" ry="28"/>
	<path class="st0" d="M392,5.9V12c0,15.5-17.9,28-40,28s-40-12.5-40-28V4"/>
	<ellipse class="st0" cx="1397" cy="4" rx="40" ry="12"/>
	<path class="st0" d="M1437,4v8c0,6.6-17.9,12-40,12s-40-5.4-40-12V4"/>
	<ellipse class="st0" cx="328" cy="308" rx="40" ry="20"/>
	<path class="st0" d="M368,308v8c0,11-17.9,20-40,20s-40-9-40-20v-8"/>
	<ellipse transform="matrix(0.4182 -0.9084 0.9084 0.4182 -17.1682 125.9254)" class="st0" cx="89.7" cy="76.4" rx="12" ry="40"/>
	<path class="st0" d="M126,93.1l-3.3,7.3c-2.8,6-21.3,3.4-41.3-5.8S47.2,72.9,50,66.9l3.3-7.3"/>
	<ellipse transform="matrix(0.498 -0.8672 0.8672 0.498 648.9952 1549.9612)" class="st0" cx="1663.2" cy="214.4" rx="40" ry="28"/>
	<path class="st0" d="M1645.1,250.2l5.3,3.1c13.4,7.7,33.2-1.6,44.2-20.7s9.1-40.9-4.4-48.6l-6.9-4"/>
	<ellipse class="st0" cx="320" cy="576" rx="40" ry="8"/>
	<path class="st0" d="M360,576v8c0,4.4-17.9,8-40,8s-40-3.6-40-8v-8"/>
	<ellipse transform="matrix(0.7641 -0.6451 0.6451 0.7641 97.1879 481.2928)" class="st0" cx="706.7" cy="107.8" rx="8" ry="40"/>
	<path class="st0" d="M732.5,138.4l-6.1,5.2c-3.4,2.9-17.7-8.5-31.9-25.4s-23.1-32.9-19.7-35.7l6.1-5.2"/>
	<rect x="1028" y="88" class="st1" width="128" height="56.3"/>
	<circle class="st1" cx="1091.3" cy="116.1" r="14.1"/>
	<path class="st1" d="M1145.2,125.5v-18.8c-5.2,0-9.4-4.2-9.4-9.4l0,0h-89.1c0,5.2-4.2,9.4-9.4,9.4l0,0v18.8c5.2,0,9.4,4.2,9.4,9.4
		l0,0h89.1C1135.9,129.7,1140.1,125.5,1145.2,125.5L1145.2,125.5z"/>
	<polyline class="st2" points="1160,92 1160,148 1032,148 	"/>
	<polyline class="st2" points="1164,96 1164,152 1036,152 	"/>
	<polyline class="st2" points="1168,100 1168,156 1040,156 	"/>
	<polyline class="st2" points="1172,104 1172,160 1044,160 	"/>
	<ellipse class="st0" cx="864" cy="484" rx="40" ry="4"/>
	<path class="st0" d="M904,484v8c0,2.2-17.9,4-40,4s-40-1.8-40-4v-8"/>
	
		<ellipse transform="matrix(0.4201 -0.9075 0.9075 0.4201 405.7948 1687.8477)" class="st0" cx="1523.5" cy="526.4" rx="8" ry="40"/>
	<path class="st0" d="M1487.2,509.6l-3.4,7.3c-1.9,4,12.9,14.8,32.9,24.1s37.8,13.5,39.7,9.5l3.4-7.3"/>
	<ellipse class="st0" cx="1848" cy="516" rx="40" ry="4"/>
	<path class="st0" d="M1808,516v8c0,2.2,17.9,4,40,4s40-1.8,40-4v-8"/>
	
		<ellipse transform="matrix(0.5174 -0.8557 0.8557 0.5174 -161.244 743.2983)" class="st0" cx="578.4" cy="514.6" rx="8" ry="40.2"/>
	<path class="st0" d="M608.9,536l-4.1,6.8c-2.3,3.8-19.5-2.4-38.4-13.8s-32.4-23.8-30.1-27.5l4.1-6.9"/>
	<rect x="815.6" y="751" class="st0" width="80.3" height="8"/>
	<rect x="791.3" y="743" class="st0" width="80.3" height="8"/>
	<rect x="807.3" y="735" class="st0" width="80.3" height="8"/>
	<rect x="799.3" y="727" class="st0" width="80.3" height="8"/>
	<rect x="807.6" y="719" class="st0" width="80.3" height="8"/>
	<rect x="807.6" y="711" class="st0" width="80.3" height="8"/>
	<rect x="799.5" y="703" class="st0" width="80.3" height="8"/>
	<rect x="815.1" y="695" class="st0" width="80.3" height="8"/>
	<rect x="687.1" y="751" class="st0" width="80.3" height="8"/>
	<rect x="698.3" y="743" class="st0" width="80.3" height="8"/>
	<rect x="682.3" y="735" class="st0" width="80.3" height="8"/>
	<rect x="687.5" y="727" class="st0" width="80.3" height="8"/>
	<rect x="682" y="719" class="st0" width="80.3" height="8"/>
	<rect x="695.1" y="711" class="st0" width="80.3" height="8"/>
	<rect x="703.1" y="703" class="st0" width="80.3" height="8"/>
	<rect x="687.5" y="695" class="st0" width="80.3" height="8"/>
	<rect x="687.5" y="687" class="st0" width="80.3" height="8"/>
	<rect x="680" y="679" class="st0" width="80.3" height="8"/>
	<rect x="687.7" y="671" class="st0" width="80.3" height="8"/>
	
		<ellipse transform="matrix(0.7144 -0.6998 0.6998 0.7144 -329.1096 641.9665)" class="st0" cx="621.8" cy="724.1" rx="40" ry="12"/>
	<path class="st0" d="M650.4,696.2l5.6,5.7c4.6,4.7-4.4,21.1-20.2,36.6s-32.3,24.2-37,19.4l-5.6-5.7"/>
	<path class="st0" d="M671.2,682.9l7.3,3.3c4,1.8-0.2,19.6-9.5,39.7s-20,34.8-24,33l-7.3-3.3"/>
	<path class="st0" d="M654.9,700.8c6.9-11.9,13.4-19.3,16.3-18c4,1.8-0.2,19.6-9.5,39.7s-20,34.8-24,33c-2.6-1.2-1.7-9.3,1.9-20.5"
		/>
	<rect x="808" y="687" class="st0" width="80.3" height="8"/>
	<rect x="823.7" y="679" class="st0" width="80.3" height="8"/>
	<rect x="823.7" y="671" class="st0" width="80.3" height="8"/>
	<rect x="815.1" y="663" class="st0" width="80.3" height="8"/>
	<rect x="807.5" y="655" class="st0" width="80.3" height="8"/>
	<rect x="823.7" y="647" class="st0" width="80.3" height="8"/>
	<rect x="815.1" y="639" class="st0" width="80.3" height="8"/>
	<rect x="824" y="631" class="st0" width="80" height="8"/>
	<rect x="383.8" y="751" class="st0" width="80" height="8"/>
	<rect x="368" y="743" class="st0" width="80.3" height="8"/>
	<rect x="375.5" y="735" class="st0" width="80.3" height="8"/>
	<rect x="383.5" y="727" class="st0" width="80.3" height="8"/>
	<rect x="376" y="688" class="st0" width="80.3" height="8"/>
	<rect x="824" y="623" class="st0" width="80" height="8"/>
	<rect x="807.5" y="615" class="st0" width="80.3" height="8"/>
	<rect x="831.7" y="607" class="st0" width="80.3" height="8"/>
	<rect x="823.7" y="599" class="st0" width="80.3" height="8"/>
	<rect x="807.5" y="591" class="st0" width="80.3" height="8"/>
	<rect x="815.1" y="583" class="st0" width="80.3" height="8"/>
	<rect x="815.1" y="575" class="st0" width="80.3" height="8"/>
	<rect x="815.5" y="567" class="st0" width="80.3" height="8"/>
	<ellipse transform="matrix(0.9075 -0.4201 0.4201 0.9075 -199.6499 384.229)" class="st0" cx="772.5" cy="645.4" rx="40" ry="8"/>
	<path class="st0" d="M808.8,628.6l3.4,7.3c1.9,4-12.9,14.8-32.9,24.1s-37.8,13.5-39.7,9.5l-3.4-7.3"/>
	<rect x="272" y="751" class="st0" width="80" height="8"/>
	<rect x="264.2" y="743" class="st0" width="80.3" height="8"/>
	<rect x="271.7" y="735" class="st0" width="80.3" height="8"/>
	<rect x="256" y="727" class="st0" width="80.3" height="8"/>
	<rect x="256" y="719" class="st0" width="80.3" height="8"/>
	<rect x="263.7" y="711" class="st0" width="80.3" height="8"/>
	<rect x="480" y="751" class="st0" width="80" height="8"/>
	<rect x="496.2" y="743" class="st0" width="80.3" height="8"/>
	<rect x="503.7" y="735" class="st0" width="80.3" height="8"/>
	<rect x="496" y="727" class="st0" width="80.3" height="8"/>
	<rect x="488" y="719" class="st0" width="80.3" height="8"/>
	<rect x="496" y="711" class="st0" width="80.3" height="8"/>
	<rect x="480" y="703" class="st0" width="80.3" height="8"/>
	<rect x="488" y="695" class="st0" width="80.3" height="8"/>
	<rect x="152" y="751" class="st0" width="80.3" height="8"/>
	<rect x="152" y="743" class="st0" width="80.3" height="8"/>
	<ellipse transform="matrix(0.2944 -0.9557 0.9557 0.2944 -635.3669 614.1453)" class="st0" cx="98.2" cy="737.3" rx="8" ry="40"/>
	<path class="st0" d="M136.5,749.1l-2.4,7.7c-1.3,4.2-19.5,2.4-40.6-4.1s-37.2-15.2-35.9-19.4l2.3-7.7"/>
	<polyline class="st0" points="88.8,751 15.7,751 15.7,759 96,759 96,753.3 	"/>
	<rect x="1304" y="751" class="st0" width="80.3" height="8"/>
	<polyline class="st0" points="1400.7,743.8 1400.7,751 1320.4,751 1320.4,743 1400,743 	"/>
	<rect x="1304.4" y="735" class="st0" width="80.3" height="8"/>
	<rect x="1735.3" y="751" class="st0" width="80" height="8"/>
	<polyline class="st0" points="1392.7,730.5 1392.7,735 1312.4,735 1312.4,727 1391.3,727 	"/>
	<rect x="1304" y="719" class="st0" width="80.3" height="8"/>
	<rect x="1304" y="711" class="st0" width="80.3" height="8"/>
	<polyline class="st0" points="1388.2,711 1312.2,711 1312.2,703 1388.9,703 	"/>
	<rect x="1304.2" y="695" class="st0" width="80.3" height="8"/>
	<rect x="1495.7" y="751" class="st0" width="80.3" height="8"/>
	<rect x="1480" y="743" class="st0" width="80.3" height="8"/>
	<rect x="1476.8" y="735" class="st0" width="80.3" height="8"/>
	<rect x="1479.7" y="727" class="st0" width="80.3" height="8"/>
	<rect x="1472" y="719" class="st0" width="80.3" height="8"/>
	<rect x="1472" y="711" class="st0" width="80.3" height="8"/>
	<rect x="1464" y="703" class="st0" width="80.3" height="8"/>
	<rect x="1479.7" y="695" class="st0" width="80.3" height="8"/>
	<rect x="1479.7" y="687" class="st0" width="80.3" height="8"/>
	<rect x="1487.1" y="679" class="st0" width="80.3" height="8"/>
	<rect x="1479.5" y="671" class="st0" width="80.3" height="8"/>
	<ellipse transform="matrix(0.8672 -0.498 0.498 0.8672 -168.0239 805.7593)" class="st0" cx="1426.6" cy="717.9" rx="28" ry="40"/>
	<path class="st0" d="M1444.8,753.2l-5.3,3.1c-13.4,7.7-33.2-1.6-44.2-20.7s-9.1-40.9,4.4-48.6l6.9-4"/>
	<rect x="1727.5" y="743" class="st0" width="80.3" height="8"/>
	<rect x="1720" y="735" class="st0" width="80.3" height="8"/>
	<rect x="1727.7" y="727" class="st0" width="80.3" height="8"/>
	
		<ellipse transform="matrix(0.6998 -0.7144 0.7144 0.6998 -167.2244 1049.2878)" class="st0" cx="1164.7" cy="723.6" rx="40" ry="12"/>
	<path class="st0" d="M1136.7,752.2l5.7,5.6c4.7,4.6,21.1-4.4,36.6-20.2s24.2-32.3,19.4-37l-5.7-5.6"/>
	<rect x="1311.3" y="687" class="st0" width="80.3" height="8"/>
	<rect x="1303.1" y="679" class="st0" width="80.3" height="8"/>
	<rect x="1295.5" y="671" class="st0" width="80.3" height="8"/>
	<rect x="1304" y="663" class="st0" width="80.3" height="8"/>
	<rect x="1304.2" y="655" class="st0" width="80.3" height="8"/>
	<rect x="1728" y="719" class="st0" width="80.3" height="8"/>
	<rect x="1303.5" y="647" class="st0" width="80.3" height="8"/>
	<rect x="1312" y="639" class="st0" width="80.3" height="8"/>
	<rect x="1304" y="631" class="st0" width="80.3" height="8"/>
	<rect x="1856" y="751" class="st0" width="80" height="8"/>
	<rect x="1840.2" y="743" class="st0" width="80.3" height="8"/>
	<rect x="1831.5" y="735" class="st0" width="80.3" height="8"/>
	<rect x="1839.5" y="727" class="st0" width="80.3" height="8"/>
	<rect x="1712" y="711" class="st0" width="80.3" height="8"/>
	<rect x="1303.8" y="623" class="st0" width="80" height="8"/>
	<rect x="1296.5" y="615" class="st0" width="80.3" height="8"/>
	<rect x="1288" y="607" class="st0" width="80.3" height="8"/>
	<rect x="1296" y="599" class="st0" width="80.3" height="8"/>
	<rect x="1296" y="591" class="st0" width="80.3" height="8"/>
	<rect x="1728" y="703" class="st0" width="80.3" height="8"/>
	<rect x="1720" y="695" class="st0" width="80.3" height="8"/>
	<rect x="1959.3" y="751" class="st0" width="80.3" height="8"/>
	<rect x="1959.3" y="743" class="st0" width="80.3" height="8"/>
	
		<ellipse transform="matrix(0.9557 -0.2944 0.2944 0.9557 -124.2739 648.9691)" class="st0" cx="2093.4" cy="737.3" rx="40" ry="8"/>
	<path class="st0" d="M2055.2,749.1l2.4,7.7c1.3,4.2,19.5,2.4,40.6-4.1s37.2-15.2,35.9-19.4l-2.4-7.7"/>
	<polyline class="st0" points="2104,751 2176,751 2176,759 2095.7,759 2095.7,753.3 	"/>
	<rect x="1191.7" y="751" class="st0" width="80.3" height="8"/>
	<rect x="1202.9" y="743" class="st0" width="80.3" height="8"/>
	<rect x="1197.9" y="735" class="st0" width="80.3" height="8"/>
	<rect x="1203.1" y="727" class="st0" width="80.3" height="8"/>
	<rect x="1199.3" y="719" class="st0" width="80.3" height="8"/>
	<rect x="1199.7" y="711" class="st0" width="80.3" height="8"/>
	<rect x="1207.7" y="703" class="st0" width="80.3" height="8"/>
	<rect x="1204.3" y="695" class="st0" width="80.3" height="8"/>
	<polyline class="st0" points="1192,694.2 1192,687 1272.3,687 1272.3,695 1192.7,695 	"/>
	<rect x="1200" y="679" class="st0" width="80.3" height="8"/>
	<rect x="1196.6" y="671" class="st0" width="80.3" height="8"/>
	<path class="st0" d="M967.5,748.2c-1,4.3-19.2,3.9-40.8-1s-38.2-12.2-37.3-16.6s19.2-3.9,40.8,1c5.7,1.3,11,2.7,15.8,4.3"/>
	<path class="st0" d="M967.5,748.2l-1.8,7.8c-1,4.3-19.2,3.9-40.8-1s-38.2-12.3-37.3-16.6l1.8-7.8"/>
	<path class="st0" d="M1003.6,751.8c-6.7-0.2-20.3-4.7-35.1-12.2c-19.7-9.9-34.1-21.2-32.2-25.1c1.5-3,11.8-1,25.1,4.4"/>
	<path class="st0" d="M1006.4,753.2l-2.2,4.4c-2,4-19.6-0.9-39.3-10.8s-34.1-21.2-32.2-25.1l3.6-7.2"/>
	<ellipse transform="matrix(0.449 -0.8935 0.8935 0.449 -103.8981 1296.7791)" class="st0" cx="999.5" cy="732.6" rx="8" ry="40"/>
	<path class="st0" d="M1035.3,750.5l-3.6,7.2c-2,4-19.6-0.9-39.3-10.8s-34.1-21.2-32.2-25.1l3.6-7.2"/>
	<path class="st0" d="M1639.8,748.2c-1,4.3-19.2,3.9-40.8-1s-38.2-12.3-37.3-16.6s19.2-3.9,40.8,1c5.7,1.3,11,2.7,15.8,4.3"/>
	<path class="st0" d="M1639.8,748.2l-1.8,7.8c-1,4.3-19.2,3.9-40.8-1s-38.2-12.3-37.3-16.6l1.8-7.8"/>
	<path class="st0" d="M1675.9,751.8c-6.7-0.2-20.3-4.7-35.1-12.2c-19.7-9.9-34.1-21.2-32.2-25.1c1.5-3,11.8-1,25.1,4.4"/>
	<path class="st0" d="M1678.8,753.2l-2.2,4.4c-2,4-19.6-0.9-39.3-10.8s-34.1-21.2-32.2-25.1l3.6-7.2"/>
	<ellipse transform="matrix(0.449 -0.8935 0.8935 0.449 266.5912 1897.5146)" class="st0" cx="1671.9" cy="732.6" rx="8" ry="40"/>
	<path class="st0" d="M1707.6,750.5l-3.6,7.2c-2,4-19.6-0.9-39.3-10.8s-34.1-21.2-32.2-25.1l3.6-7.2"/>
	<ellipse transform="matrix(0.498 -0.8672 0.8672 0.498 82.5302 1398.9792)" class="st0" cx="1249.6" cy="628.2" rx="40" ry="28"/>
	<path class="st0" d="M1231.3,664l5.3,3.1c13.4,7.7,33.2-1.6,44.2-20.7s9.1-40.9-4.4-48.6l-6.9-4"/>
	<ellipse transform="matrix(0.498 -0.8672 0.8672 0.498 462.0475 808.7999)" class="st0" cx="929.6" cy="5.3" rx="40" ry="28"/>
	<path class="st0" d="M911.3,41l5.3,3.1c13.4,7.7,33.2-1.6,44.2-20.7s9-40.9-4.4-48.6l-6.9-4"/>
	<ellipse class="st0" cx="2064" cy="348" rx="40" ry="20"/>
	<path class="st0" d="M2104,348v8c0,11-17.9,20-40,20s-40-9-40-20v-8"/>
	
		<ellipse transform="matrix(0.5273 -0.8497 0.8497 0.5273 855.1557 1698.2911)" class="st0" cx="1953.9" cy="80.6" rx="40" ry="12"/>
	<path class="st0" d="M1974.7,46.5l6.8,4.2c5.6,3.5,0.8,21.5-10.9,40.3s-25.7,31.2-31.3,27.7l-6.8-4.2"/>
</g>
</svg>
