<svg xmlns="http://www.w3.org/2000/svg" viewBox="0 0 2200 760"><defs><style>.b8d203c1-49d7-4e3c-b6c5-d6ffaa3dd03d,.bf041408-6774-40d1-a519-ed95c3b5eb0f,.c82df842-2b9e-41fa-a958-4029dccf0ec0{fill:none;stroke:#c7eada;stroke-linejoin:round;}.bf041408-6774-40d1-a519-ed95c3b5eb0f,.c82df842-2b9e-41fa-a958-4029dccf0ec0{stroke-linecap:round;}.bf041408-6774-40d1-a519-ed95c3b5eb0f{stroke-width:2px;}.b8d203c1-49d7-4e3c-b6c5-d6ffaa3dd03d,.c82df842-2b9e-41fa-a958-4029dccf0ec0{stroke-width:2.05px;}</style></defs><title>bkg-giveback</title><g id="aa9788f0-5740-457b-a4c4-0c06f1c442c2" data-name="Layer 1"><rect class="bf041408-6774-40d1-a519-ed95c3b5eb0f" x="1018.4" y="600" width="22.4" height="56"/><path class="bf041408-6774-40d1-a519-ed95c3b5eb0f" d="M1040.8,608s12.8-16,32-16c12.8,0,19.2,6.4,32,6.4h22.4a9.6,9.6,0,0,1,0,19.2H1092"/><path class="bf041408-6774-40d1-a519-ed95c3b5eb0f" d="M1136.8,611.2l28.46-15.32c8.7-4.14,15.19.86,16,4.42,1,4.5.22,7.59-4.37,10.89,0,0-38.46,32-65.66,32-20.8,0-20.8-3.2-44.8-3.2-19.2,0-25.6,8-25.6,8"/><ellipse class="bf041408-6774-40d1-a519-ed95c3b5eb0f" cx="352" cy="4" rx="40" ry="28"/><path class="bf041408-6774-40d1-a519-ed95c3b5eb0f" d="M392,5.86V12c0,15.46-17.91,28-40,28s-40-12.54-40-28V4"/><ellipse class="bf041408-6774-40d1-a519-ed95c3b5eb0f" cx="2200" cy="164" rx="40" ry="28"/><path class="bf041408-6774-40d1-a519-ed95c3b5eb0f" d="M2240,165.86V172c0,15.46-17.91,28-40,28s-40-12.54-40-28v-8"/><ellipse class="bf041408-6774-40d1-a519-ed95c3b5eb0f" cx="8.59" cy="469.39" rx="28" ry="40" transform="translate(-232.67 66.65) rotate(-29.87)"/><path class="bf041408-6774-40d1-a519-ed95c3b5eb0f" d="M26.9,505l-5.32,3.06c-13.41,7.7-33.2-1.58-44.2-20.74s-9.05-40.93,4.36-48.63l6.94-4"/><ellipse class="bf041408-6774-40d1-a519-ed95c3b5eb0f" cx="1397" cy="4" rx="40" ry="12"/><path class="bf041408-6774-40d1-a519-ed95c3b5eb0f" d="M1437,4v8c0,6.63-17.91,12-40,12s-40-5.37-40-12V4"/><ellipse class="bf041408-6774-40d1-a519-ed95c3b5eb0f" cx="328" cy="308" rx="40" ry="20"/><path class="bf041408-6774-40d1-a519-ed95c3b5eb0f" d="M368,308v8c0,11-17.91,20-40,20s-40-9-40-20v-8"/><ellipse class="bf041408-6774-40d1-a519-ed95c3b5eb0f" cx="89.67" cy="76.37" rx="12" ry="40" transform="translate(-17.19 125.89) rotate(-65.28)"/><path class="bf041408-6774-40d1-a519-ed95c3b5eb0f" d="M126,93.09l-3.35,7.27c-2.77,6-21.29,3.41-41.35-5.83S47.22,72.93,50,66.91l3.35-7.27"/><ellipse class="bf041408-6774-40d1-a519-ed95c3b5eb0f" cx="1663.41" cy="214.62" rx="40" ry="28" transform="translate(648.75 1550.09) rotate(-60.13)"/><path class="bf041408-6774-40d1-a519-ed95c3b5eb0f" d="M1645.1,250.23l5.32,3.06c13.41,7.7,33.2-1.58,44.2-20.74s9.05-40.93-4.36-48.63l-6.94-4"/><ellipse class="bf041408-6774-40d1-a519-ed95c3b5eb0f" cx="320" cy="576" rx="40" ry="8"/><path class="bf041408-6774-40d1-a519-ed95c3b5eb0f" d="M360,576v8c0,4.42-17.91,8-40,8s-40-3.58-40-8v-8"/><ellipse class="bf041408-6774-40d1-a519-ed95c3b5eb0f" cx="706.7" cy="107.84" rx="8" ry="40" transform="translate(97.11 481.27) rotate(-40.17)"/><path class="bf041408-6774-40d1-a519-ed95c3b5eb0f" d="M732.5,138.4l-6.11,5.16c-3.38,2.85-17.66-8.52-31.91-25.41s-23.06-32.88-19.69-35.73l6.11-5.16"/><rect class="b8d203c1-49d7-4e3c-b6c5-d6ffaa3dd03d" x="1028" y="88" width="128" height="56.28"/><circle class="b8d203c1-49d7-4e3c-b6c5-d6ffaa3dd03d" cx="1091.31" cy="116.14" r="14.07"/><path class="b8d203c1-49d7-4e3c-b6c5-d6ffaa3dd03d" d="M1145.24,125.52V106.76a9.38,9.38,0,0,1-9.38-9.38h-89.1a9.38,9.38,0,0,1-9.38,9.38v18.76a9.38,9.38,0,0,1,9.38,9.38h89.1A9.38,9.38,0,0,1,1145.24,125.52Z"/><polyline class="c82df842-2b9e-41fa-a958-4029dccf0ec0" points="1160 92 1160 148 1032 148"/><polyline class="c82df842-2b9e-41fa-a958-4029dccf0ec0" points="1164 96 1164 152 1036 152"/><polyline class="c82df842-2b9e-41fa-a958-4029dccf0ec0" points="1168 100 1168 156 1040 156"/><polyline class="c82df842-2b9e-41fa-a958-4029dccf0ec0" points="1172 104 1172 160 1044 160"/><ellipse class="bf041408-6774-40d1-a519-ed95c3b5eb0f" cx="864" cy="484" rx="40" ry="4"/><path class="bf041408-6774-40d1-a519-ed95c3b5eb0f" d="M904,484v8c0,2.21-17.91,4-40,4s-40-1.79-40-4v-8"/><ellipse class="bf041408-6774-40d1-a519-ed95c3b5eb0f" cx="1523.54" cy="526.43" rx="8" ry="40" transform="translate(405.78 1687.86) rotate(-65.16)"/><path class="bf041408-6774-40d1-a519-ed95c3b5eb0f" d="M1487.24,509.63l-3.36,7.26c-1.86,4,12.89,14.78,32.94,24.06s37.8,13.55,39.66,9.54l3.36-7.26"/><ellipse class="bf041408-6774-40d1-a519-ed95c3b5eb0f" cx="1848" cy="516" rx="40" ry="4"/><path class="bf041408-6774-40d1-a519-ed95c3b5eb0f" d="M1808,516v8c0,2.21,17.91,4,40,4s40-1.79,40-4v-8"/><ellipse class="bf041408-6774-40d1-a519-ed95c3b5eb0f" cx="574.63" cy="515.36" rx="8" ry="40" transform="matrix(0.52, -0.86, 0.86, 0.52, -163.6, 740.77)"/><path class="bf041408-6774-40d1-a519-ed95c3b5eb0f" d="M608.87,536l-4.14,6.85c-2.28,3.78-19.47-2.41-38.37-13.83s-32.39-23.75-30.1-27.53l4.14-6.85"/><rect class="bf041408-6774-40d1-a519-ed95c3b5eb0f" x="815.63" y="751" width="80.33" height="8" transform="translate(1711.59 1510) rotate(-180)"/><rect class="bf041408-6774-40d1-a519-ed95c3b5eb0f" x="791.31" y="743" width="80.33" height="8" transform="translate(1662.94 1494) rotate(-180)"/><rect class="bf041408-6774-40d1-a519-ed95c3b5eb0f" x="807.31" y="735" width="80.33" height="8" transform="translate(1694.94 1478) rotate(-180)"/><rect class="bf041408-6774-40d1-a519-ed95c3b5eb0f" x="799.31" y="727" width="80.33" height="8" transform="translate(1678.94 1462) rotate(-180)"/><rect class="bf041408-6774-40d1-a519-ed95c3b5eb0f" x="807.63" y="719" width="80.33" height="8" transform="translate(1695.59 1446) rotate(-180)"/><rect class="bf041408-6774-40d1-a519-ed95c3b5eb0f" x="807.63" y="711" width="80.33" height="8" transform="translate(1695.59 1430) rotate(-180)"/><rect class="bf041408-6774-40d1-a519-ed95c3b5eb0f" x="799.47" y="703" width="80.33" height="8" transform="translate(1679.27 1414) rotate(-180)"/><rect class="bf041408-6774-40d1-a519-ed95c3b5eb0f" x="815.14" y="695" width="80.33" height="8" transform="translate(1710.61 1398) rotate(-180)"/><rect class="bf041408-6774-40d1-a519-ed95c3b5eb0f" x="687.14" y="751" width="80.33" height="8"/><rect class="bf041408-6774-40d1-a519-ed95c3b5eb0f" x="698.33" y="743" width="80.33" height="8"/><rect class="bf041408-6774-40d1-a519-ed95c3b5eb0f" x="682.33" y="735" width="80.33" height="8"/><rect class="bf041408-6774-40d1-a519-ed95c3b5eb0f" x="687.47" y="727" width="80.33" height="8"/><rect class="bf041408-6774-40d1-a519-ed95c3b5eb0f" x="682" y="719" width="80.33" height="8"/><rect class="bf041408-6774-40d1-a519-ed95c3b5eb0f" x="695.14" y="711" width="80.33" height="8"/><rect class="bf041408-6774-40d1-a519-ed95c3b5eb0f" x="703.14" y="703" width="80.33" height="8"/><rect class="bf041408-6774-40d1-a519-ed95c3b5eb0f" x="687.47" y="695" width="80.33" height="8"/><rect class="bf041408-6774-40d1-a519-ed95c3b5eb0f" x="687.47" y="687" width="80.33" height="8"/><rect class="bf041408-6774-40d1-a519-ed95c3b5eb0f" x="680" y="679" width="80.33" height="8"/><rect class="bf041408-6774-40d1-a519-ed95c3b5eb0f" x="687.67" y="671" width="80.33" height="8"/><ellipse class="bf041408-6774-40d1-a519-ed95c3b5eb0f" cx="621.79" cy="724.14" rx="40" ry="12" transform="translate(-329.13 641.95) rotate(-44.41)"/><path class="bf041408-6774-40d1-a519-ed95c3b5eb0f" d="M650.37,696.15l5.6,5.71c4.64,4.73-4.4,21.1-20.18,36.56s-32.33,24.15-37,19.42l-5.6-5.71"/><path class="bf041408-6774-40d1-a519-ed95c3b5eb0f" d="M671.23,682.86l7.26,3.35c4,1.85-.25,19.61-9.51,39.67s-20,34.81-24,33l-7.26-3.35"/><path class="bf041408-6774-40d1-a519-ed95c3b5eb0f" d="M654.94,700.82c6.88-11.87,13.37-19.31,16.29-18,4,1.85-.25,19.61-9.51,39.67s-20,34.81-24,33c-2.64-1.22-1.7-9.35,1.91-20.49"/><rect class="bf041408-6774-40d1-a519-ed95c3b5eb0f" x="808" y="687" width="80.33" height="8" transform="translate(1696.33 1382) rotate(-180)"/><rect class="bf041408-6774-40d1-a519-ed95c3b5eb0f" x="823.67" y="679" width="80.33" height="8" transform="translate(1727.67 1366) rotate(-180)"/><rect class="bf041408-6774-40d1-a519-ed95c3b5eb0f" x="823.67" y="671" width="80.33" height="8" transform="translate(1727.67 1350) rotate(-180)"/><rect class="bf041408-6774-40d1-a519-ed95c3b5eb0f" x="815.14" y="663" width="80.33" height="8" transform="translate(1710.61 1334) rotate(-180)"/><rect class="bf041408-6774-40d1-a519-ed95c3b5eb0f" x="807.47" y="655" width="80.33" height="8" transform="translate(1695.27 1318) rotate(-180)"/><rect class="bf041408-6774-40d1-a519-ed95c3b5eb0f" x="823.67" y="647" width="80.33" height="8" transform="translate(1727.67 1302) rotate(-180)"/><rect class="bf041408-6774-40d1-a519-ed95c3b5eb0f" x="815.14" y="639" width="80.33" height="8" transform="translate(1710.61 1286) rotate(-180)"/><rect class="bf041408-6774-40d1-a519-ed95c3b5eb0f" x="824" y="631" width="80" height="8" transform="translate(1728 1270) rotate(-180)"/><rect class="bf041408-6774-40d1-a519-ed95c3b5eb0f" x="383.8" y="751" width="80" height="8" transform="translate(847.59 1510) rotate(-180)"/><rect class="bf041408-6774-40d1-a519-ed95c3b5eb0f" x="368" y="743" width="80.33" height="8" transform="translate(816.33 1494) rotate(-180)"/><rect class="bf041408-6774-40d1-a519-ed95c3b5eb0f" x="375.47" y="735" width="80.33" height="8" transform="translate(831.27 1478) rotate(-180)"/><rect class="bf041408-6774-40d1-a519-ed95c3b5eb0f" x="383.47" y="727" width="80.33" height="8" transform="translate(847.27 1462) rotate(-180)"/><rect class="bf041408-6774-40d1-a519-ed95c3b5eb0f" x="376" y="688" width="80.33" height="8" transform="translate(832.33 1384) rotate(-180)"/><rect class="bf041408-6774-40d1-a519-ed95c3b5eb0f" x="824" y="623" width="80" height="8"/><rect class="bf041408-6774-40d1-a519-ed95c3b5eb0f" x="807.47" y="615" width="80.33" height="8"/><rect class="bf041408-6774-40d1-a519-ed95c3b5eb0f" x="831.67" y="607" width="80.33" height="8"/><rect class="bf041408-6774-40d1-a519-ed95c3b5eb0f" x="823.67" y="599" width="80.33" height="8"/><rect class="bf041408-6774-40d1-a519-ed95c3b5eb0f" x="807.47" y="591" width="80.33" height="8"/><rect class="bf041408-6774-40d1-a519-ed95c3b5eb0f" x="815.14" y="583" width="80.33" height="8" transform="translate(1710.61 1174) rotate(-180)"/><rect class="bf041408-6774-40d1-a519-ed95c3b5eb0f" x="815.14" y="575" width="80.33" height="8" transform="translate(1710.61 1158) rotate(-180)"/><rect class="bf041408-6774-40d1-a519-ed95c3b5eb0f" x="815.47" y="567" width="80.33" height="8" transform="translate(1711.27 1142) rotate(-180)"/><ellipse class="bf041408-6774-40d1-a519-ed95c3b5eb0f" cx="772.46" cy="645.43" rx="40" ry="8" transform="translate(-199.68 384.23) rotate(-24.84)"/><path class="bf041408-6774-40d1-a519-ed95c3b5eb0f" d="M808.76,628.63l3.36,7.26c1.86,4-12.89,14.78-32.94,24.06s-37.8,13.55-39.66,9.54l-3.36-7.26"/><rect class="bf041408-6774-40d1-a519-ed95c3b5eb0f" x="272" y="751" width="80" height="8" transform="translate(624 1510) rotate(-180)"/><rect class="bf041408-6774-40d1-a519-ed95c3b5eb0f" x="264.2" y="743" width="80.33" height="8" transform="translate(608.73 1494) rotate(-180)"/><rect class="bf041408-6774-40d1-a519-ed95c3b5eb0f" x="271.67" y="735" width="80.33" height="8" transform="translate(623.67 1478) rotate(-180)"/><rect class="bf041408-6774-40d1-a519-ed95c3b5eb0f" x="256" y="727" width="80.33" height="8" transform="translate(592.33 1462) rotate(-180)"/><rect class="bf041408-6774-40d1-a519-ed95c3b5eb0f" x="256" y="719" width="80.33" height="8" transform="translate(592.33 1446) rotate(-180)"/><rect class="bf041408-6774-40d1-a519-ed95c3b5eb0f" x="263.67" y="711" width="80.33" height="8" transform="translate(607.67 1430) rotate(-180)"/><rect class="bf041408-6774-40d1-a519-ed95c3b5eb0f" x="480" y="751" width="80" height="8" transform="translate(1040 1510) rotate(-180)"/><rect class="bf041408-6774-40d1-a519-ed95c3b5eb0f" x="496.2" y="743" width="80.33" height="8" transform="translate(1072.73 1494) rotate(-180)"/><rect class="bf041408-6774-40d1-a519-ed95c3b5eb0f" x="503.67" y="735" width="80.33" height="8" transform="translate(1087.67 1478) rotate(-180)"/><rect class="bf041408-6774-40d1-a519-ed95c3b5eb0f" x="496" y="727" width="80.33" height="8" transform="translate(1072.33 1462) rotate(-180)"/><rect class="bf041408-6774-40d1-a519-ed95c3b5eb0f" x="488" y="719" width="80.33" height="8" transform="translate(1056.33 1446) rotate(-180)"/><rect class="bf041408-6774-40d1-a519-ed95c3b5eb0f" x="496" y="711" width="80.33" height="8" transform="translate(1072.33 1430) rotate(-180)"/><rect class="bf041408-6774-40d1-a519-ed95c3b5eb0f" x="480" y="703" width="80.33" height="8" transform="translate(1040.33 1414) rotate(-180)"/><rect class="bf041408-6774-40d1-a519-ed95c3b5eb0f" x="488" y="695" width="80.33" height="8" transform="translate(1056.33 1398) rotate(-180)"/><rect class="bf041408-6774-40d1-a519-ed95c3b5eb0f" x="152" y="751" width="80.33" height="8" transform="translate(384.33 1510) rotate(-180)"/><rect class="bf041408-6774-40d1-a519-ed95c3b5eb0f" x="152" y="743" width="80.33" height="8" transform="translate(384.33 1494) rotate(-180)"/><ellipse class="bf041408-6774-40d1-a519-ed95c3b5eb0f" cx="98.23" cy="737.31" rx="8" ry="40" transform="translate(-635.33 614.14) rotate(-72.88)"/><path class="bf041408-6774-40d1-a519-ed95c3b5eb0f" d="M136.46,749.09l-2.36,7.65c-1.3,4.22-19.47,2.37-40.58-4.13s-37.17-15.2-35.87-19.42L60,725.54"/><polyline class="bf041408-6774-40d1-a519-ed95c3b5eb0f" points="88.84 751 15.67 751 15.67 759 96 759 96 753.35"/><rect class="bf041408-6774-40d1-a519-ed95c3b5eb0f" x="1304" y="751" width="80.33" height="8"/><polyline class="bf041408-6774-40d1-a519-ed95c3b5eb0f" points="1400.69 743.81 1400.69 751 1320.37 751 1320.37 743 1400 743"/><rect class="bf041408-6774-40d1-a519-ed95c3b5eb0f" x="1304.37" y="735" width="80.33" height="8"/><rect class="bf041408-6774-40d1-a519-ed95c3b5eb0f" x="1735.35" y="751" width="80" height="8"/><polyline class="bf041408-6774-40d1-a519-ed95c3b5eb0f" points="1392.69 730.47 1392.69 735 1312.37 735 1312.37 727 1391.28 727"/><rect class="bf041408-6774-40d1-a519-ed95c3b5eb0f" x="1304.04" y="719" width="80.33" height="8"/><rect class="bf041408-6774-40d1-a519-ed95c3b5eb0f" x="1304.04" y="711" width="80.33" height="8"/><polyline class="bf041408-6774-40d1-a519-ed95c3b5eb0f" points="1388.16 711 1312.2 711 1312.2 703 1388.9 703"/><rect class="bf041408-6774-40d1-a519-ed95c3b5eb0f" x="1304.2" y="695" width="80.33" height="8"/><rect class="bf041408-6774-40d1-a519-ed95c3b5eb0f" x="1495.67" y="751" width="80.33" height="8" transform="translate(3071.67 1510) rotate(-180)"/><rect class="bf041408-6774-40d1-a519-ed95c3b5eb0f" x="1480" y="743" width="80.33" height="8" transform="translate(3040.33 1494) rotate(-180)"/><rect class="bf041408-6774-40d1-a519-ed95c3b5eb0f" x="1476.81" y="735" width="80.33" height="8" transform="translate(3033.95 1478) rotate(-180)"/><rect class="bf041408-6774-40d1-a519-ed95c3b5eb0f" x="1479.67" y="727" width="80.33" height="8" transform="translate(3039.67 1462) rotate(-180)"/><rect class="bf041408-6774-40d1-a519-ed95c3b5eb0f" x="1472" y="719" width="80.33" height="8" transform="translate(3024.33 1446) rotate(-180)"/><rect class="bf041408-6774-40d1-a519-ed95c3b5eb0f" x="1472" y="711" width="80.33" height="8" transform="translate(3024.33 1430) rotate(-180)"/><rect class="bf041408-6774-40d1-a519-ed95c3b5eb0f" x="1464" y="703" width="80.33" height="8" transform="translate(3008.33 1414) rotate(-180)"/><rect class="bf041408-6774-40d1-a519-ed95c3b5eb0f" x="1479.67" y="695" width="80.33" height="8" transform="translate(3039.67 1398) rotate(-180)"/><rect class="bf041408-6774-40d1-a519-ed95c3b5eb0f" x="1479.67" y="687" width="80.33" height="8" transform="translate(3039.67 1382) rotate(-180)"/><rect class="bf041408-6774-40d1-a519-ed95c3b5eb0f" x="1487.14" y="679" width="80.33" height="8" transform="translate(3054.61 1366) rotate(-180)"/><rect class="bf041408-6774-40d1-a519-ed95c3b5eb0f" x="1479.47" y="671" width="80.33" height="8" transform="translate(3039.27 1350) rotate(-180)"/><ellipse class="bf041408-6774-40d1-a519-ed95c3b5eb0f" cx="1426.5" cy="717.62" rx="28" ry="40" transform="translate(-167.89 805.91) rotate(-29.87)"/><path class="bf041408-6774-40d1-a519-ed95c3b5eb0f" d="M1444.81,753.23l-5.32,3.06c-13.41,7.7-33.2-1.58-44.2-20.74s-9.05-40.93,4.36-48.63l6.94-4"/><rect class="bf041408-6774-40d1-a519-ed95c3b5eb0f" x="1727.47" y="743" width="80.33" height="8"/><rect class="bf041408-6774-40d1-a519-ed95c3b5eb0f" x="1720" y="735" width="80.33" height="8"/><rect class="bf041408-6774-40d1-a519-ed95c3b5eb0f" x="1727.67" y="727" width="80.33" height="8"/><ellipse class="bf041408-6774-40d1-a519-ed95c3b5eb0f" cx="1164.73" cy="723.61" rx="40" ry="12" transform="translate(-167.24 1049.3) rotate(-45.59)"/><path class="bf041408-6774-40d1-a519-ed95c3b5eb0f" d="M1136.74,752.19l5.71,5.6c4.73,4.64,21.1-4.4,36.56-20.18s24.15-32.33,19.42-37l-5.71-5.6"/><rect class="bf041408-6774-40d1-a519-ed95c3b5eb0f" x="1311.35" y="687" width="80.33" height="8"/><rect class="bf041408-6774-40d1-a519-ed95c3b5eb0f" x="1303.14" y="679" width="80.33" height="8"/><rect class="bf041408-6774-40d1-a519-ed95c3b5eb0f" x="1295.47" y="671" width="80.33" height="8"/><rect class="bf041408-6774-40d1-a519-ed95c3b5eb0f" x="1304" y="663" width="80.33" height="8"/><rect class="bf041408-6774-40d1-a519-ed95c3b5eb0f" x="1304.2" y="655" width="80.33" height="8"/><rect class="bf041408-6774-40d1-a519-ed95c3b5eb0f" x="1728" y="719" width="80.33" height="8"/><rect class="bf041408-6774-40d1-a519-ed95c3b5eb0f" x="1303.47" y="647" width="80.33" height="8"/><rect class="bf041408-6774-40d1-a519-ed95c3b5eb0f" x="1312" y="639" width="80.33" height="8"/><rect class="bf041408-6774-40d1-a519-ed95c3b5eb0f" x="1304" y="631" width="80.33" height="8"/><rect class="bf041408-6774-40d1-a519-ed95c3b5eb0f" x="1856" y="751" width="80" height="8" transform="translate(3792 1510) rotate(-180)"/><rect class="bf041408-6774-40d1-a519-ed95c3b5eb0f" x="1840.2" y="743" width="80.33" height="8" transform="translate(3760.73 1494) rotate(-180)"/><rect class="bf041408-6774-40d1-a519-ed95c3b5eb0f" x="1831.55" y="735" width="80.33" height="8" transform="translate(3743.43 1478) rotate(-180)"/><rect class="bf041408-6774-40d1-a519-ed95c3b5eb0f" x="1839.55" y="727" width="80.33" height="8" transform="translate(3759.43 1462) rotate(-180)"/><rect class="bf041408-6774-40d1-a519-ed95c3b5eb0f" x="1712" y="711" width="80.33" height="8"/><rect class="bf041408-6774-40d1-a519-ed95c3b5eb0f" x="1303.8" y="623" width="80" height="8" transform="translate(2687.59 1254) rotate(-180)"/><rect class="bf041408-6774-40d1-a519-ed95c3b5eb0f" x="1296.53" y="615" width="80.33" height="8" transform="translate(2673.39 1238) rotate(-180)"/><rect class="bf041408-6774-40d1-a519-ed95c3b5eb0f" x="1288" y="607" width="80.33" height="8" transform="translate(2656.33 1222) rotate(-180)"/><rect class="bf041408-6774-40d1-a519-ed95c3b5eb0f" x="1296" y="599" width="80.33" height="8" transform="translate(2672.33 1206) rotate(-180)"/><rect class="bf041408-6774-40d1-a519-ed95c3b5eb0f" x="1296" y="591" width="80.33" height="8" transform="translate(2672.33 1190) rotate(-180)"/><rect class="bf041408-6774-40d1-a519-ed95c3b5eb0f" x="1728" y="703" width="80.33" height="8"/><rect class="bf041408-6774-40d1-a519-ed95c3b5eb0f" x="1720" y="695" width="80.33" height="8"/><rect class="bf041408-6774-40d1-a519-ed95c3b5eb0f" x="1959.35" y="751" width="80.33" height="8"/><rect class="bf041408-6774-40d1-a519-ed95c3b5eb0f" x="1959.35" y="743" width="80.33" height="8"/><ellipse class="bf041408-6774-40d1-a519-ed95c3b5eb0f" cx="2093.44" cy="737.31" rx="40" ry="8" transform="translate(-124.29 648.94) rotate(-17.12)"/><path class="bf041408-6774-40d1-a519-ed95c3b5eb0f" d="M2055.21,749.09l2.36,7.65c1.3,4.22,19.47,2.37,40.58-4.13s37.17-15.2,35.87-19.42l-2.36-7.65"/><polyline class="bf041408-6774-40d1-a519-ed95c3b5eb0f" points="2103.97 751 2176 751 2176 759 2095.67 759 2095.67 753.35"/><rect class="bf041408-6774-40d1-a519-ed95c3b5eb0f" x="1191.67" y="751" width="80.33" height="8"/><rect class="bf041408-6774-40d1-a519-ed95c3b5eb0f" x="1202.86" y="743" width="80.33" height="8"/><rect class="bf041408-6774-40d1-a519-ed95c3b5eb0f" x="1197.91" y="735" width="80.33" height="8"/><rect class="bf041408-6774-40d1-a519-ed95c3b5eb0f" x="1203.05" y="727" width="80.33" height="8"/><rect class="bf041408-6774-40d1-a519-ed95c3b5eb0f" x="1199.35" y="719" width="80.33" height="8"/><rect class="bf041408-6774-40d1-a519-ed95c3b5eb0f" x="1199.67" y="711" width="80.33" height="8"/><rect class="bf041408-6774-40d1-a519-ed95c3b5eb0f" x="1207.67" y="703" width="80.33" height="8"/><rect class="bf041408-6774-40d1-a519-ed95c3b5eb0f" x="1204.29" y="695" width="80.33" height="8"/><polyline class="bf041408-6774-40d1-a519-ed95c3b5eb0f" points="1192 694.24 1192 687 1272.33 687 1272.33 695 1192.72 695"/><rect class="bf041408-6774-40d1-a519-ed95c3b5eb0f" x="1200" y="679" width="80.33" height="8"/><rect class="bf041408-6774-40d1-a519-ed95c3b5eb0f" x="1196.62" y="671" width="80.33" height="8"/><path class="bf041408-6774-40d1-a519-ed95c3b5eb0f" d="M967.52,748.23c-1,4.31-19.23,3.87-40.78-1S888.5,735,889.47,730.66s19.23-3.87,40.78,1c5.68,1.28,11,2.74,15.8,4.27"/><path class="bf041408-6774-40d1-a519-ed95c3b5eb0f" d="M967.52,748.23l-1.76,7.8c-1,4.31-19.23,3.87-40.78-1s-38.24-12.28-37.27-16.59l1.76-7.8"/><path class="bf041408-6774-40d1-a519-ed95c3b5eb0f" d="M1003.61,751.85c-6.72-.16-20.32-4.74-35.13-12.18-19.74-9.92-34.13-21.16-32.15-25.11,1.49-3,11.77-1,25.14,4.38"/><path class="bf041408-6774-40d1-a519-ed95c3b5eb0f" d="M1006.44,753.21l-2.22,4.42c-2,3.95-19.59-.89-39.33-10.81s-34.13-21.16-32.15-25.11l3.59-7.15"/><ellipse class="bf041408-6774-40d1-a519-ed95c3b5eb0f" cx="999.52" cy="732.52" rx="8" ry="40" transform="translate(-103.78 1296.75) rotate(-63.32)"/><path class="bf041408-6774-40d1-a519-ed95c3b5eb0f" d="M1035.26,750.48l-3.59,7.15c-2,3.95-19.59-.89-39.33-10.81s-34.13-21.16-32.15-25.11l3.59-7.15"/><path class="bf041408-6774-40d1-a519-ed95c3b5eb0f" d="M1639.83,748.23c-1,4.31-19.23,3.87-40.78-1s-38.24-12.28-37.27-16.59,19.23-3.87,40.78,1c5.68,1.28,11,2.74,15.8,4.27"/><path class="bf041408-6774-40d1-a519-ed95c3b5eb0f" d="M1639.83,748.23l-1.76,7.8c-1,4.31-19.23,3.87-40.78-1s-38.24-12.28-37.27-16.59l1.76-7.8"/><path class="bf041408-6774-40d1-a519-ed95c3b5eb0f" d="M1675.92,751.85c-6.72-.16-20.32-4.74-35.13-12.18-19.74-9.92-34.13-21.16-32.15-25.11,1.49-3,11.77-1,25.14,4.38"/><path class="bf041408-6774-40d1-a519-ed95c3b5eb0f" d="M1678.75,753.21l-2.22,4.42c-2,3.95-19.59-.89-39.33-10.81s-34.13-21.16-32.15-25.11l3.59-7.15"/><ellipse class="bf041408-6774-40d1-a519-ed95c3b5eb0f" cx="1671.82" cy="732.52" rx="8" ry="40" transform="translate(266.68 1897.48) rotate(-63.32)"/><path class="bf041408-6774-40d1-a519-ed95c3b5eb0f" d="M1707.56,750.48l-3.59,7.15c-2,3.95-19.59-.89-39.33-10.81s-34.13-21.16-32.15-25.11l3.59-7.15"/><ellipse class="bf041408-6774-40d1-a519-ed95c3b5eb0f" cx="1249.65" cy="628.39" rx="40" ry="28" transform="translate(82.3 1398.98) rotate(-60.13)"/><path class="bf041408-6774-40d1-a519-ed95c3b5eb0f" d="M1231.35,664l5.32,3.06c13.41,7.7,33.2-1.58,44.2-20.74s9.05-40.93-4.36-48.63l-6.94-4"/><ellipse class="bf041408-6774-40d1-a519-ed95c3b5eb0f" cx="929.65" cy="5.39" rx="40" ry="28" transform="translate(461.91 808.83) rotate(-60.13)"/><path class="bf041408-6774-40d1-a519-ed95c3b5eb0f" d="M911.35,41l5.32,3.06c13.41,7.7,33.2-1.58,44.2-20.74s9.05-40.93-4.36-48.63l-6.94-4"/><ellipse class="bf041408-6774-40d1-a519-ed95c3b5eb0f" cx="2064" cy="348" rx="40" ry="20"/><path class="bf041408-6774-40d1-a519-ed95c3b5eb0f" d="M2104,348v8c0,11-17.91,20-40,20s-40-9-40-20v-8"/><ellipse class="bf041408-6774-40d1-a519-ed95c3b5eb0f" cx="1953.65" cy="80.49" rx="40" ry="12" transform="translate(855.31 1698.17) rotate(-58.18)"/><path class="bf041408-6774-40d1-a519-ed95c3b5eb0f" d="M1974.74,46.5l6.8,4.22c5.63,3.49.76,21.54-10.89,40.32s-25.65,31.16-31.28,27.66l-6.8-4.22"/></g></svg>